<svg xmlns="http://www.w3.org/2000/svg" xmlns:xlink="http://www.w3.org/1999/xlink" width="40" zoomAndPan="magnify" viewBox="0 0 30 30.000001" height="40" preserveAspectRatio="xMidYMid meet" version="1.0"><defs><clipPath id="5bc06d3671"><path d="M 2.242188 1 L 27.648438 1 L 27.648438 28 L 2.242188 28 Z M 2.242188 1 " clip-rule="nonzero"/></clipPath><clipPath id="78afca0701"><path d="M 2.242188 12.757812 L 2.242188 16.277344 C 2.242188 23.320312 7.953125 29.03125 15 29.03125 C 22.046875 29.03125 27.757812 23.320312 27.757812 16.277344 L 27.757812 12.757812 C 27.757812 5.710938 22.046875 0 15 0 C 7.953125 0 2.242188 5.710938 2.242188 12.757812 Z M 2.242188 12.757812 " clip-rule="nonzero"/></clipPath><clipPath id="b124485ea8"><path d="M 13 7.277344 L 21 7.277344 L 21 15 L 13 15 Z M 13 7.277344 " clip-rule="nonzero"/></clipPath><clipPath id="9ca3090886"><path d="M 5.675781 14 L 23.820312 14 L 23.820312 21.792969 L 5.675781 21.792969 Z M 5.675781 14 " clip-rule="nonzero"/></clipPath></defs><g clip-path="url(#5bc06d3671)"><g clip-path="url(#78afca0701)"><path fill="#000000" d="M 11.789062 1.753906 C 12.617188 1.546875 13.460938 1.421875 14.3125 1.378906 C 15.167969 1.332031 16.015625 1.371094 16.863281 1.492188 C 17.707031 1.617188 18.535156 1.816406 19.339844 2.101562 C 20.148438 2.382812 20.917969 2.742188 21.65625 3.175781 C 22.390625 3.605469 23.078125 4.109375 23.71875 4.675781 C 24.359375 5.242188 24.9375 5.867188 25.453125 6.546875 C 25.972656 7.226562 26.417969 7.949219 26.796875 8.714844 C 27.171875 9.484375 27.472656 10.28125 27.691406 11.105469 C 27.710938 11.179688 27.734375 11.257812 27.753906 11.335938 L 27.550781 11.40625 C 27.53125 11.324219 27.507812 11.242188 27.488281 11.160156 C 27.269531 10.339844 26.972656 9.550781 26.597656 8.792969 C 26.222656 8.03125 25.777344 7.316406 25.265625 6.644531 C 24.75 5.972656 24.171875 5.355469 23.539062 4.796875 C 22.902344 4.234375 22.21875 3.742188 21.484375 3.320312 C 20.753906 2.894531 19.984375 2.542969 19.183594 2.269531 C 18.382812 1.996094 17.5625 1.800781 16.722656 1.6875 C 15.882812 1.574219 15.042969 1.542969 14.195312 1.597656 C 13.351562 1.648438 12.519531 1.78125 11.699219 1.996094 C 11.730469 1.917969 11.761719 1.835938 11.789062 1.753906 Z M 2.445312 17.652344 C 2.460938 17.722656 2.480469 17.789062 2.496094 17.855469 C 2.71875 18.675781 3.015625 19.46875 3.390625 20.226562 C 3.765625 20.988281 4.210938 21.707031 4.730469 22.382812 C 5.246094 23.054688 5.824219 23.671875 6.460938 24.230469 C 7.101562 24.792969 7.785156 25.285156 8.523438 25.710938 C 9.257812 26.132812 10.027344 26.484375 10.832031 26.757812 C 11.636719 27.027344 12.457031 27.222656 13.300781 27.332031 C 14.140625 27.445312 14.984375 27.472656 15.832031 27.417969 C 16.679688 27.359375 17.515625 27.222656 18.335938 27.003906 C 18.300781 27.085938 18.269531 27.164062 18.242188 27.246094 C 17.410156 27.460938 16.566406 27.589844 15.710938 27.636719 C 14.855469 27.683594 14.003906 27.644531 13.15625 27.527344 C 12.308594 27.40625 11.480469 27.207031 10.671875 26.925781 C 9.863281 26.640625 9.089844 26.285156 8.351562 25.851562 C 7.609375 25.417969 6.921875 24.917969 6.277344 24.351562 C 5.636719 23.785156 5.058594 23.160156 4.539062 22.480469 C 4.019531 21.796875 3.570312 21.074219 3.191406 20.304688 C 2.8125 19.535156 2.515625 18.738281 2.292969 17.910156 C 2.277344 17.847656 2.261719 17.785156 2.242188 17.722656 Z M 2.445312 17.652344 " fill-opacity="1" fill-rule="evenodd"/></g></g><g clip-path="url(#b124485ea8)"><path fill="#000000" d="M 17.34375 14.417969 C 19.324219 14.417969 20.933594 12.816406 20.933594 10.847656 C 20.933594 8.878906 19.324219 7.28125 17.34375 7.28125 C 15.363281 7.28125 13.753906 8.878906 13.753906 10.847656 C 13.753906 12.816406 15.363281 14.417969 17.34375 14.417969 Z M 14.351562 10.847656 C 14.351562 9.207031 15.695312 7.871094 17.34375 7.871094 C 18.992188 7.871094 20.335938 9.207031 20.335938 10.847656 C 20.335938 12.488281 18.992188 13.824219 17.34375 13.824219 C 15.695312 13.824219 14.351562 12.488281 14.351562 10.847656 Z M 14.351562 10.847656 " fill-opacity="1" fill-rule="nonzero"/></g><path fill="#000000" d="M 16.46875 12.484375 C 16.621094 12.632812 16.828125 12.738281 17.054688 12.785156 L 17.054688 13.101562 C 17.050781 13.261719 17.183594 13.390625 17.34375 13.390625 C 17.503906 13.390625 17.632812 13.261719 17.632812 13.105469 L 17.636719 12.785156 C 17.863281 12.738281 18.070312 12.632812 18.222656 12.480469 C 18.402344 12.304688 18.5 12.082031 18.5 11.851562 L 18.5 11.722656 C 18.5 11.414062 18.328125 11.125 18.035156 10.945312 L 17 10.308594 C 16.878906 10.234375 16.808594 10.128906 16.808594 10.019531 L 16.808594 9.820312 C 16.808594 9.722656 16.863281 9.632812 16.960938 9.558594 C 17.066406 9.480469 17.210938 9.4375 17.363281 9.4375 C 17.515625 9.4375 17.660156 9.480469 17.769531 9.558594 C 17.867188 9.632812 17.917969 9.722656 17.917969 9.820312 L 17.917969 10.046875 C 17.917969 10.207031 18.050781 10.335938 18.210938 10.335938 C 18.371094 10.335938 18.5 10.207031 18.5 10.046875 L 18.5 9.820312 C 18.5 9.382812 18.148438 9 17.65625 8.890625 L 17.65625 8.59375 C 17.65625 8.433594 17.523438 8.304688 17.363281 8.304688 C 17.203125 8.304688 17.074219 8.433594 17.074219 8.59375 L 17.074219 8.890625 C 16.578125 9 16.226562 9.382812 16.226562 9.820312 L 16.226562 10.019531 C 16.226562 10.328125 16.402344 10.617188 16.695312 10.796875 L 17.730469 11.4375 C 17.851562 11.511719 17.917969 11.617188 17.917969 11.722656 L 17.917969 11.851562 C 17.917969 11.949219 17.867188 12.039062 17.769531 12.113281 C 17.660156 12.191406 17.515625 12.234375 17.363281 12.234375 L 17.324219 12.234375 C 17.171875 12.234375 17.027344 12.191406 16.921875 12.113281 C 16.824219 12.039062 16.769531 11.949219 16.769531 11.851562 L 16.769531 11.726562 C 16.769531 11.566406 16.636719 11.4375 16.476562 11.4375 C 16.316406 11.4375 16.1875 11.566406 16.1875 11.726562 L 16.1875 11.851562 C 16.1875 12.082031 16.289062 12.308594 16.46875 12.484375 Z M 16.46875 12.484375 " fill-opacity="1" fill-rule="nonzero"/><g clip-path="url(#9ca3090886)"><path fill="#000000" d="M 23.398438 15.273438 C 22.992188 14.828125 22.347656 14.78125 21.890625 15.167969 L 19.226562 17.3125 C 19.226562 17.289062 19.226562 17.261719 19.226562 17.234375 C 19.21875 16.59375 18.710938 16.074219 18.101562 16.074219 L 15.140625 16.074219 C 14.972656 16.074219 14.8125 15.976562 14.710938 15.8125 C 14.691406 15.777344 14.660156 15.75 14.628906 15.722656 C 13.417969 14.773438 11.789062 14.648438 10.394531 15.265625 L 9.878906 15.492188 L 8.84375 15.492188 L 8.84375 15.023438 C 8.84375 14.851562 8.703125 14.714844 8.535156 14.714844 L 5.984375 14.714844 C 5.8125 14.714844 5.675781 14.851562 5.675781 15.023438 L 5.675781 20.671875 C 5.675781 20.839844 5.8125 20.976562 5.984375 20.976562 L 8.535156 20.976562 C 8.703125 20.976562 8.84375 20.839844 8.84375 20.671875 L 8.84375 20.1875 L 9.894531 20.1875 L 13.539062 21.339844 C 14.367188 21.640625 15.058594 21.792969 15.753906 21.792969 C 16.308594 21.792969 16.863281 21.695312 17.488281 21.5 C 17.542969 21.484375 17.601562 21.464844 17.660156 21.445312 C 17.789062 21.398438 17.910156 21.339844 18.027344 21.273438 C 18.125 21.21875 18.21875 21.15625 18.304688 21.085938 L 23.398438 16.957031 C 23.414062 16.941406 23.429688 16.925781 23.441406 16.910156 C 23.820312 16.4375 23.800781 15.71875 23.398438 15.273438 Z M 8.226562 20.367188 L 6.289062 20.367188 L 6.289062 15.328125 L 8.226562 15.328125 Z M 22.980469 16.503906 L 18.230469 20.359375 C 17.816406 20.695312 17.332031 20.933594 16.808594 21.054688 C 15.777344 21.292969 14.925781 21.195312 13.746094 20.761719 C 13.742188 20.761719 13.738281 20.757812 13.734375 20.757812 L 10.035156 19.589844 C 10.007812 19.582031 9.972656 19.578125 9.941406 19.578125 L 8.84375 19.578125 L 8.84375 16.101562 L 9.941406 16.101562 C 9.984375 16.101562 10.027344 16.09375 10.066406 16.078125 L 10.644531 15.824219 C 11.816406 15.304688 13.152344 15.4375 14.222656 16.183594 C 14.4375 16.5 14.777344 16.6875 15.140625 16.6875 L 18.101562 16.6875 C 18.378906 16.6875 18.609375 16.9375 18.613281 17.246094 C 18.617188 17.414062 18.554688 17.578125 18.445312 17.6875 C 18.390625 17.742188 18.328125 17.78125 18.257812 17.804688 C 18.171875 17.820312 18.082031 17.828125 17.992188 17.828125 L 14.699219 17.828125 C 14.53125 17.828125 14.390625 17.960938 14.386719 18.128906 C 14.386719 18.296875 14.523438 18.4375 14.695312 18.4375 L 18.128906 18.4375 C 18.222656 18.4375 18.3125 18.425781 18.398438 18.402344 C 18.78125 18.332031 19.144531 18.167969 19.460938 17.910156 L 22.28125 15.640625 C 22.285156 15.640625 22.289062 15.636719 22.289062 15.636719 C 22.488281 15.464844 22.761719 15.484375 22.941406 15.683594 C 23.140625 15.902344 23.15625 16.265625 22.980469 16.503906 Z M 22.980469 16.503906 " fill-opacity="1" fill-rule="nonzero"/></g></svg>