<svg xmlns="http://www.w3.org/2000/svg" xmlns:xlink="http://www.w3.org/1999/xlink" width="500" zoomAndPan="magnify" viewBox="0 0 375 374.999991" height="500" preserveAspectRatio="xMidYMid meet" version="1.0"><defs><clipPath id="4d3886f0c6"><path d="M 76.777344 68 L 298.027344 68 L 298.027344 297 L 76.777344 297 Z M 76.777344 68 " clip-rule="nonzero"/></clipPath><clipPath id="f66207808c"><path d="M 179 122.328125 L 239 122.328125 L 239 182 L 179 182 Z M 179 122.328125 " clip-rule="nonzero"/></clipPath><clipPath id="8f615197cd"><path d="M 112.5 184 L 262 184 L 262 243.078125 L 112.5 243.078125 Z M 112.5 184 " clip-rule="nonzero"/></clipPath></defs><rect x="-37.5" width="450" fill="#ffffff" y="-37.499999" height="449.999989" fill-opacity="1"/><rect x="-37.5" width="450" fill="#ffffff" y="-37.499999" height="449.999989" fill-opacity="1"/><g clip-path="url(#4d3886f0c6)"><path fill="#3d3b3a" d="M 159.660156 71.875 C 161.453125 71.425781 163.257812 71.019531 165.070312 70.65625 C 166.882812 70.292969 168.703125 69.976562 170.535156 69.703125 C 172.363281 69.425781 174.199219 69.199219 176.039062 69.015625 C 177.878906 68.828125 179.722656 68.6875 181.566406 68.59375 C 183.414062 68.5 185.261719 68.449219 187.113281 68.445312 C 188.960938 68.4375 190.808594 68.476562 192.65625 68.5625 C 194.503906 68.648438 196.347656 68.777344 198.191406 68.949219 C 200.03125 69.125 201.867188 69.34375 203.699219 69.605469 C 205.527344 69.871094 207.351562 70.175781 209.167969 70.53125 C 210.980469 70.882812 212.789062 71.277344 214.585938 71.714844 C 216.378906 72.15625 218.164062 72.640625 219.9375 73.164062 C 221.710938 73.691406 223.46875 74.261719 225.214844 74.875 C 226.960938 75.484375 228.6875 76.140625 230.402344 76.835938 C 232.117188 77.53125 233.8125 78.269531 235.488281 79.046875 C 237.167969 79.824219 238.824219 80.644531 240.460938 81.5 C 242.101562 82.359375 243.714844 83.257812 245.308594 84.195312 C 246.90625 85.132812 248.476562 86.109375 250.023438 87.121094 C 251.570312 88.136719 253.089844 89.1875 254.585938 90.273438 C 256.082031 91.363281 257.550781 92.484375 258.992188 93.644531 C 260.433594 94.800781 261.84375 95.996094 263.226562 97.222656 C 264.609375 98.449219 265.964844 99.710938 267.285156 101.003906 C 268.605469 102.296875 269.898438 103.621094 271.152344 104.976562 C 272.410156 106.332031 273.636719 107.71875 274.824219 109.136719 C 276.015625 110.550781 277.171875 111.992188 278.292969 113.464844 C 279.410156 114.9375 280.496094 116.433594 281.542969 117.957031 C 282.589844 119.484375 283.597656 121.03125 284.570312 122.605469 C 285.542969 124.179688 286.476562 125.773438 287.371094 127.390625 C 288.265625 129.011719 289.121094 130.652344 289.9375 132.308594 C 290.75 133.96875 291.523438 135.648438 292.257812 137.347656 C 292.992188 139.046875 293.683594 140.757812 294.332031 142.492188 C 294.984375 144.222656 295.589844 145.96875 296.15625 147.730469 C 296.722656 149.488281 297.242188 151.261719 297.722656 153.050781 C 297.898438 153.707031 298.074219 154.382812 298.242188 155.066406 L 296.496094 155.675781 C 296.316406 154.957031 296.136719 154.242188 295.941406 153.523438 C 295.46875 151.753906 294.949219 149.996094 294.390625 148.25 C 293.832031 146.503906 293.226562 144.773438 292.582031 143.058594 C 291.9375 141.34375 291.25 139.644531 290.523438 137.964844 C 289.792969 136.28125 289.023438 134.617188 288.214844 132.972656 C 287.40625 131.328125 286.554688 129.707031 285.667969 128.101562 C 284.777344 126.5 283.851562 124.917969 282.882812 123.363281 C 281.917969 121.804688 280.914062 120.273438 279.871094 118.765625 C 278.828125 117.257812 277.75 115.773438 276.636719 114.320312 C 275.523438 112.863281 274.375 111.4375 273.191406 110.035156 C 272.007812 108.636719 270.789062 107.269531 269.539062 105.929688 C 268.285156 104.589844 267.003906 103.28125 265.6875 102.003906 C 264.371094 100.726562 263.027344 99.484375 261.652344 98.273438 C 260.273438 97.0625 258.871094 95.886719 257.4375 94.746094 C 256.003906 93.601562 254.542969 92.496094 253.054688 91.425781 C 251.566406 90.355469 250.054688 89.320312 248.515625 88.324219 C 246.976562 87.328125 245.414062 86.371094 243.828125 85.449219 C 242.242188 84.53125 240.636719 83.648438 239.007812 82.808594 C 237.378906 81.96875 235.730469 81.167969 234.0625 80.40625 C 232.398438 79.644531 230.710938 78.925781 229.007812 78.25 C 227.304688 77.570312 225.585938 76.933594 223.851562 76.339844 C 222.117188 75.746094 220.371094 75.195312 218.609375 74.6875 C 216.847656 74.179688 215.078125 73.714844 213.292969 73.292969 C 211.507812 72.871094 209.714844 72.492188 207.914062 72.160156 C 206.113281 71.824219 204.300781 71.535156 202.484375 71.292969 C 200.667969 71.046875 198.847656 70.84375 197.023438 70.691406 C 195.195312 70.535156 193.367188 70.421875 191.535156 70.355469 C 189.703125 70.289062 187.871094 70.269531 186.039062 70.292969 C 184.207031 70.316406 182.375 70.382812 180.546875 70.496094 C 178.714844 70.609375 176.890625 70.765625 175.070312 70.96875 C 173.246094 71.171875 171.429688 71.417969 169.621094 71.710938 C 167.8125 72 166.011719 72.335938 164.21875 72.714844 C 162.425781 73.09375 160.640625 73.519531 158.867188 73.984375 C 159.144531 73.289062 159.414062 72.589844 159.660156 71.878906 Z M 78.523438 209.902344 C 78.671875 210.488281 78.820312 211.074219 78.976562 211.660156 C 79.453125 213.4375 79.972656 215.199219 80.535156 216.949219 C 81.097656 218.699219 81.703125 220.433594 82.347656 222.152344 C 82.996094 223.871094 83.683594 225.574219 84.414062 227.261719 C 85.148438 228.945312 85.917969 230.613281 86.730469 232.261719 C 87.542969 233.910156 88.394531 235.535156 89.289062 237.144531 C 90.179688 238.75 91.113281 240.332031 92.082031 241.894531 C 93.054688 243.453125 94.0625 244.988281 95.105469 246.5 C 96.152344 248.011719 97.234375 249.496094 98.351562 250.953125 C 99.472656 252.410156 100.625 253.839844 101.8125 255.242188 C 103.003906 256.644531 104.222656 258.015625 105.480469 259.355469 C 106.734375 260.699219 108.023438 262.007812 109.34375 263.285156 C 110.664062 264.5625 112.015625 265.808594 113.398438 267.019531 C 114.777344 268.230469 116.1875 269.410156 117.628906 270.550781 C 119.066406 271.695312 120.53125 272.800781 122.027344 273.871094 C 123.519531 274.941406 125.039062 275.976562 126.582031 276.972656 C 128.125 277.96875 129.695312 278.925781 131.285156 279.84375 C 132.875 280.761719 134.488281 281.644531 136.125 282.484375 C 137.757812 283.324219 139.410156 284.121094 141.085938 284.882812 C 142.757812 285.640625 144.449219 286.359375 146.160156 287.035156 C 147.867188 287.710938 149.589844 288.34375 151.332031 288.933594 C 153.070312 289.523438 154.824219 290.074219 156.589844 290.578125 C 158.359375 291.082031 160.136719 291.542969 161.925781 291.960938 C 163.714844 292.378906 165.511719 292.753906 167.320312 293.082031 C 169.128906 293.414062 170.945312 293.699219 172.765625 293.9375 C 174.585938 294.179688 176.414062 294.375 178.246094 294.527344 C 180.078125 294.675781 181.910156 294.78125 183.746094 294.84375 C 185.582031 294.90625 187.421875 294.921875 189.257812 294.890625 C 191.09375 294.863281 192.929688 294.785156 194.765625 294.667969 C 196.597656 294.546875 198.425781 294.382812 200.253906 294.175781 C 202.078125 293.964844 203.898438 293.710938 205.710938 293.414062 C 207.523438 293.113281 209.328125 292.773438 211.125 292.386719 C 212.921875 291.996094 214.707031 291.566406 216.480469 291.09375 C 216.195312 291.789062 215.917969 292.492188 215.660156 293.203125 C 213.863281 293.660156 212.058594 294.074219 210.242188 294.441406 C 208.425781 294.8125 206.601562 295.136719 204.769531 295.417969 C 202.9375 295.699219 201.101562 295.933594 199.257812 296.125 C 197.414062 296.316406 195.566406 296.464844 193.714844 296.566406 C 191.863281 296.667969 190.011719 296.722656 188.15625 296.734375 C 186.304688 296.746094 184.453125 296.710938 182.597656 296.632812 C 180.746094 296.550781 178.898438 296.425781 177.054688 296.257812 C 175.207031 296.089844 173.367188 295.875 171.53125 295.617188 C 169.695312 295.355469 167.867188 295.054688 166.046875 294.707031 C 164.226562 294.359375 162.414062 293.964844 160.613281 293.53125 C 158.8125 293.09375 157.023438 292.613281 155.246094 292.089844 C 153.464844 291.566406 151.703125 291 149.953125 290.390625 C 148.199219 289.78125 146.464844 289.132812 144.746094 288.4375 C 143.027344 287.742188 141.328125 287.007812 139.644531 286.230469 C 137.960938 285.457031 136.296875 284.636719 134.65625 283.78125 C 133.011719 282.921875 131.390625 282.027344 129.789062 281.089844 C 128.191406 280.152344 126.613281 279.179688 125.0625 278.164062 C 123.511719 277.152344 121.984375 276.101562 120.484375 275.015625 C 118.984375 273.925781 117.507812 272.800781 116.0625 271.644531 C 114.617188 270.484375 113.199219 269.289062 111.8125 268.0625 C 110.421875 266.832031 109.066406 265.570312 107.738281 264.277344 C 106.414062 262.984375 105.117188 261.65625 103.855469 260.300781 C 102.59375 258.941406 101.367188 257.554688 100.171875 256.136719 C 98.976562 254.71875 97.816406 253.273438 96.695312 251.800781 C 95.570312 250.328125 94.480469 248.824219 93.429688 247.300781 C 92.378906 245.773438 91.367188 244.222656 90.390625 242.644531 C 89.414062 241.070312 88.480469 239.46875 87.582031 237.847656 C 86.683594 236.226562 85.828125 234.582031 85.007812 232.921875 C 84.191406 231.257812 83.414062 229.574219 82.679688 227.875 C 81.941406 226.171875 81.25 224.453125 80.597656 222.71875 C 79.945312 220.984375 79.335938 219.234375 78.769531 217.46875 C 78.203125 215.703125 77.679688 213.925781 77.199219 212.136719 C 77.054688 211.597656 76.917969 211.054688 76.777344 210.515625 Z M 78.523438 209.902344 " fill-opacity="1" fill-rule="evenodd"/></g><g clip-path="url(#f66207808c)"><path fill="#000000" d="M 208.957031 181.707031 C 225.316406 181.707031 238.625 168.390625 238.625 152.019531 C 238.625 135.652344 225.316406 122.335938 208.957031 122.335938 C 192.597656 122.335938 179.289062 135.652344 179.289062 152.019531 C 179.289062 168.390625 192.597656 181.707031 208.957031 181.707031 Z M 184.21875 152.019531 C 184.21875 138.375 195.316406 127.269531 208.957031 127.269531 C 222.59375 127.269531 233.691406 138.375 233.691406 152.019531 C 233.691406 165.667969 222.59375 176.769531 208.957031 176.769531 C 195.316406 176.769531 184.21875 165.667969 184.21875 152.019531 Z M 184.21875 152.019531 " fill-opacity="1" fill-rule="nonzero"/></g><path fill="#000000" d="M 201.707031 165.617188 C 202.988281 166.867188 204.699219 167.75 206.574219 168.136719 L 206.554688 170.761719 C 206.546875 172.085938 207.613281 173.167969 208.9375 173.179688 L 208.957031 173.179688 C 210.269531 173.179688 211.34375 172.109375 211.355469 170.796875 L 211.375 168.128906 C 213.246094 167.734375 214.945312 166.851562 216.21875 165.597656 C 217.699219 164.144531 218.515625 162.285156 218.515625 160.359375 L 218.515625 159.300781 C 218.515625 156.742188 217.074219 154.320312 214.660156 152.824219 L 206.105469 147.523438 C 205.101562 146.902344 204.527344 146.03125 204.527344 145.136719 L 204.527344 143.476562 C 204.527344 142.671875 204.972656 141.894531 205.78125 141.292969 C 206.664062 140.636719 207.851562 140.277344 209.121094 140.277344 C 210.386719 140.277344 211.574219 140.636719 212.457031 141.292969 C 213.265625 141.894531 213.714844 142.671875 213.714844 143.476562 L 213.714844 145.347656 C 213.714844 146.671875 214.789062 147.75 216.113281 147.75 C 217.4375 147.75 218.515625 146.671875 218.515625 145.347656 L 218.515625 143.476562 C 218.515625 139.820312 215.613281 136.65625 211.519531 135.738281 L 211.519531 133.261719 C 211.519531 131.9375 210.441406 130.859375 209.121094 130.859375 C 207.796875 130.859375 206.71875 131.9375 206.71875 133.261719 L 206.71875 135.738281 C 202.628906 136.65625 199.726562 139.820312 199.726562 143.476562 L 199.726562 145.136719 C 199.726562 147.695312 201.164062 150.113281 203.578125 151.609375 L 212.136719 156.910156 C 213.136719 157.53125 213.714844 158.402344 213.714844 159.300781 L 213.714844 160.359375 C 213.714844 161.167969 213.265625 161.941406 212.457031 162.542969 C 211.574219 163.199219 210.386719 163.558594 209.121094 163.558594 L 208.792969 163.558594 C 207.523438 163.558594 206.339844 163.199219 205.457031 162.542969 C 204.644531 161.941406 204.199219 161.167969 204.199219 160.359375 L 204.199219 159.328125 C 204.199219 158.003906 203.121094 156.925781 201.800781 156.925781 C 200.476562 156.925781 199.398438 158.003906 199.398438 159.328125 L 199.398438 160.359375 C 199.398438 162.292969 200.21875 164.160156 201.707031 165.617188 Z M 201.707031 165.617188 " fill-opacity="1" fill-rule="nonzero"/><g clip-path="url(#8f615197cd)"><path fill="#000000" d="M 259.003906 188.839844 C 255.65625 185.117188 250.3125 184.75 246.554688 187.96875 L 224.515625 205.804688 C 224.527344 205.585938 224.527344 205.367188 224.527344 205.148438 C 224.4375 199.828125 220.265625 195.503906 215.222656 195.503906 L 190.753906 195.503906 C 189.34375 195.503906 188.011719 194.6875 187.195312 193.324219 C 187.015625 193.027344 186.773438 192.785156 186.503906 192.570312 C 176.484375 184.664062 163.023438 183.625 151.496094 188.753906 L 147.234375 190.648438 L 138.675781 190.648438 L 138.675781 186.738281 C 138.675781 185.335938 137.535156 184.195312 136.132812 184.195312 L 115.042969 184.195312 C 113.636719 184.195312 112.5 185.335938 112.5 186.738281 L 112.5 233.746094 C 112.5 235.148438 113.636719 236.285156 115.042969 236.285156 L 136.132812 236.285156 C 137.535156 236.285156 138.671875 235.148438 138.671875 233.746094 L 138.671875 229.710938 L 147.378906 229.710938 L 177.507812 239.28125 C 184.339844 241.808594 190.066406 243.074219 195.792969 243.074219 C 200.386719 243.074219 204.976562 242.261719 210.136719 240.636719 C 210.609375 240.488281 211.089844 240.332031 211.574219 240.167969 C 212.617188 239.765625 213.632812 239.289062 214.613281 238.742188 C 215.417969 238.292969 216.183594 237.769531 216.898438 237.183594 L 258.992188 202.820312 C 259.132812 202.707031 259.257812 202.582031 259.371094 202.441406 C 262.5 198.523438 262.339844 192.550781 259.003906 188.839844 Z M 133.59375 231.203125 L 117.582031 231.203125 L 117.582031 189.28125 L 133.59375 189.28125 Z M 255.550781 199.074219 L 216.289062 231.121094 C 212.859375 233.921875 208.839844 235.910156 204.53125 236.917969 C 195.996094 238.914062 188.960938 238.109375 179.214844 234.496094 C 179.175781 234.480469 179.136719 234.46875 179.101562 234.457031 L 148.542969 224.75 C 148.292969 224.667969 148.035156 224.628906 147.773438 224.628906 L 138.675781 224.628906 L 138.675781 195.730469 L 147.773438 195.730469 C 148.128906 195.730469 148.480469 195.65625 148.804688 195.511719 L 153.558594 193.398438 C 163.269531 189.078125 174.296875 190.210938 183.140625 196.417969 C 184.914062 199.039062 187.722656 200.585938 190.753906 200.585938 L 215.222656 200.585938 C 217.507812 200.585938 219.402344 202.671875 219.445312 205.230469 C 219.46875 206.648438 218.960938 207.988281 218.046875 208.917969 C 217.597656 209.375 217.074219 209.703125 216.515625 209.890625 C 215.792969 210.007812 215.058594 210.066406 214.316406 210.066406 L 187.101562 210.066406 C 185.703125 210.066406 184.542969 211.179688 184.523438 212.574219 C 184.503906 213.992188 185.648438 215.148438 187.0625 215.148438 L 215.4375 215.148438 C 216.203125 215.148438 216.953125 215.046875 217.675781 214.851562 C 220.84375 214.277344 223.835938 212.894531 226.460938 210.769531 L 249.777344 191.898438 C 249.800781 191.878906 249.820312 191.863281 249.839844 191.84375 C 251.480469 190.425781 253.746094 190.59375 255.226562 192.238281 C 256.863281 194.0625 256.992188 197.074219 255.550781 199.074219 Z M 255.550781 199.074219 " fill-opacity="1" fill-rule="nonzero"/></g></svg>